<svg width="100%" height="100%" viewBox="0 0 1980 500" version="1.1" xmlns="http://www.w3.org/2000/svg" xml:space="preserve"
     style="fill-rule:evenodd;clip-rule:evenodd;stroke-linejoin:round;stroke-miterlimit:2;">
    <path d="M108.741,58.882c57.513,43.178 119.376,130.725 142.089,177.707c22.715,-46.979 84.574,-134.53 142.089,-177.707c41.499,-31.155 108.738,-55.261 108.738,21.446c0,15.32 -8.783,128.692 -13.934,147.097c-17.907,63.991 -83.158,80.312 -141.199,70.434c101.455,17.267 127.265,74.462 71.526,131.658c-105.857,108.625 -152.148,-27.255 -164.015,-62.072c-2.174,-6.383 -3.191,-9.369 -3.207,-6.829c-0.015,-2.54 -1.032,0.446 -3.206,6.829c-11.862,34.817 -58.151,170.701 -164.015,62.072c-55.739,-57.196 -29.931,-114.395 71.526,-131.658c-58.043,9.878 -123.294,-6.444 -141.198,-70.434c-5.153,-18.407 -13.935,-131.779 -13.935,-147.097c0,-76.707 67.241,-52.601 108.738,-21.446l0.003,0Z"
          style="fill:#1185fe;fill-rule:nonzero;"/>
    <path d="M596.583,381.898l108.921,0c73.865,0 120.188,-29.629 122.274,-90.558c1.252,-33.386 -10.015,-57.173 -47.157,-71.779c13.354,-6.677 38.811,-19.614 38.811,-63.433c0,-40.063 -20.449,-78.039 -98.905,-78.039l-123.944,0l-0,303.809Zm68.858,-265.415l55.086,-0c37.976,-0 59.677,13.771 59.677,40.897c-0,30.464 -25.039,44.653 -57.59,44.653l-57.173,0l-0,-85.55Zm1.669,121.857l63.85,0c27.961,0 52.165,15.024 52.165,46.323c0,23.37 -17.527,46.74 -55.503,46.74l-60.512,-0l0,-93.063Z"
          fill="#f1f5f9"/>
    <path d="M861.164,363.536c25.457,16.276 50.496,24.622 80.543,24.622c40.063,0 88.054,-17.527 88.054,-61.346c0,-21.701 -4.59,-42.567 -35.889,-55.921c-19.614,-7.929 -35.055,-12.937 -58.008,-20.031c-12.519,-3.339 -18.779,-19.614 -7.094,-29.213c15.441,-12.102 40.063,-8.346 56.756,-0.834c12.936,5.425 20.448,10.85 30.047,18.779l-0,-42.149c-12.937,-9.599 -27.961,-14.606 -44.236,-18.362c-42.984,-10.016 -109.756,4.59 -109.756,58.007c0,40.48 33.803,47.575 78.457,58.842c13.771,3.339 38.393,13.772 33.803,32.969c-3.339,15.858 -17.945,17.527 -33.386,17.527c-25.039,2.087 -52.582,-10.433 -79.291,-21.701l0,38.811Z"
          fill="#f1f5f9"/>
    <path d="M1117.4,244.6l-0,-166.511l-53,0l0,303.809l53,0l-0,-63.432l112.676,64.684l0,-56.755l-74.7,-44.236l74.7,-43.819l0,-56.338l-112.676,62.598Z" fill="#f1f5f9"/>
    <path d="M1406.18,183.254l-48.409,133.125l-48.826,-133.125l-54.252,-0l78.456,206.573l-39.645,110.173l76.37,0l113.928,-316.746l-77.622,-0Z" fill="#f1f5f9"/>
    <rect x="1509.68" y="335.993" width="45.905" height="45.905" fill="#f1f5f9"/>
    <path d="M1712.08,322.222c0,11.684 -11.685,21.283 -28.795,21.283l-17.527,-0c-17.11,-0 -29.213,-16.693 -29.213,-25.457l0,-60.094c0,-12.937 15.858,-23.787 29.213,-23.787l14.606,-0c12.102,-0 24.622,8.346 27.543,20.031l43.819,-5.842c-4.591,-26.709 -31.717,-57.59 -63.016,-57.59l-25.456,-0c-30.047,-0 -69.275,16.692 -69.275,51.747l-0,82.63c-0,42.984 37.141,56.755 62.18,56.755l43.402,0c24.622,0 55.086,-23.37 55.086,-56.755l-0,-10.016l-42.567,0l0,7.095Z"
          fill="#f1f5f9"/>
    <path d="M1978.75,183.254l-197.81,-0l0,36.307l99.322,-0l-103.078,162.337l202.818,0l-0,-55.086l-105.582,0l104.33,-143.558Z" fill="#f1f5f9"/>
</svg>
