<svg width="100%" height="100%" viewBox="0 0 600 530" version="1.1" xmlns="http://www.w3.org/2000/svg" xmlns:xlink="http://www.w3.org/1999/xlink" xml:space="preserve" xmlns:serif="http://www.serif.com/" style="fill-rule:evenodd;clip-rule:evenodd;stroke-linejoin:round;stroke-miterlimit:2;">
    <path d="M135.72,44.03c66.496,49.921 138.02,151.14 164.28,205.46c26.262,-54.316 97.782,-155.54 164.28,-205.46c47.98,-36.021 125.72,-63.892 125.72,24.795c0,17.712 -10.155,148.79 -16.111,170.07c-20.703,73.984 -96.144,92.854 -163.25,81.433c117.3,19.964 147.14,86.092 82.697,152.22c-122.39,125.59 -175.91,-31.511 -189.63,-71.766c-2.514,-7.38 -3.69,-10.832 -3.708,-7.896c-0.017,-2.936 -1.193,0.516 -3.707,7.896c-13.714,40.255 -67.233,197.36 -189.63,71.766c-64.444,-66.128 -34.605,-132.26 82.697,-152.22c-67.108,11.421 -142.55,-7.45 -163.25,-81.433c-5.958,-21.282 -16.111,-152.36 -16.111,-170.07c-0,-88.687 77.742,-60.816 125.72,-24.795l0.003,0Z" style="fill:#1185fe;fill-rule:nonzero;"/>
    <clipPath id="_clip1">
        <rect id="czech-republic.svg" x="369.561" y="374.984" width="92.869" height="92.869"/>
    </clipPath>
    <g clip-path="url(#_clip1)">
        <circle cx="415.995" cy="421.419" r="46.435" style="fill:#f0f0f0;"/>
        <path d="M411.957,421.419c0,-0 -28.769,32.841 -28.796,32.834c8.403,8.403 20.011,13.601 32.834,13.601c25.645,-0 46.435,-20.79 46.435,-46.435l-50.473,-0Z" style="fill:#d80027;fill-rule:nonzero;"/>
        <path d="M383.161,388.585c-18.134,18.133 -18.134,47.534 -0,65.668c7.493,-7.493 14.7,-14.7 32.834,-32.834l-32.834,-32.834Z" style="fill:#0052b4;fill-rule:nonzero;"/>
    </g>
</svg>
